<svg width="94" height="19" viewBox="0 0 94 19" fill="none" xmlns="http://www.w3.org/2000/svg">
<mask id="mask0_254_699" style="mask-type:luminance" maskUnits="userSpaceOnUse" x="2" y="2" width="90" height="15">
<path d="M92 8.00353V2H6.73578V7.00118C6.73578 7.55529 7.16024 8 7.68161 8H2.94582C2.4211 8 2 8.44824 2 8.99882V13.0012C2 13.5553 2.42445 14 2.94582 14H6.73578V17H90.105V14H87.2642V7.99647H92V8.00353Z" fill="white"/>
</mask>
<g mask="url(#mask0_254_699)">
<path d="M46.4689 22.5426C40.2793 15.9849 44.5004 4.7049 53.3169 4.44726C58.9551 4.25314 63.7912 9.35667 63.604 15.3108C63.3634 24.6249 52.6752 29.0826 46.4656 22.5426H46.4689ZM46.4689 22.5426C50.1352 26.4708 56.4151 26.372 59.921 22.2814C63.3166 18.5225 63.1862 12.1625 59.677 8.59784C56.3015 4.88843 50.2756 4.74726 46.7162 8.33667C42.8427 12.0426 42.7491 18.6708 46.4723 22.5426H46.4689Z" fill="#D0AE8A"/>
<path d="M67.2872 20.7953C63.8548 28.9765 54.6774 33.0071 46.8969 29.1601C39.2702 25.4471 35.791 15.5189 39.1733 7.4224C43.5681 -3.35642 57.1539 -5.78818 64.6937 2.82711C68.9148 7.56358 69.8573 14.9471 67.2905 20.7953H67.2872ZM67.2237 20.7636C72.5644 7.90946 60.4024 -5.49525 47.9931 -0.645834C40.3129 2.27652 36.0384 11.7353 39.0997 19.8248C43.8957 32.8165 61.7125 33.5012 67.2203 20.7671L67.2237 20.7636Z" fill="#D0AE8A"/>
<path d="M49.568 34.6727C35.4408 31.7645 28.419 14.6574 36.6841 2.00094C41.2127 -4.97671 49.568 -8.70024 57.4587 -7.06612C65.3963 -5.59789 72.0036 1.34094 73.5109 9.69505C76.3451 24.7727 63.7286 37.7151 49.568 34.6727ZM49.5814 34.5986C60.2126 36.8856 70.7537 29.1068 72.7924 17.9503C75.553 3.51505 63.3409 -9.56141 49.6248 -6.74847C41.8577 -5.29083 35.4776 1.65506 34.1307 9.79741C32.0018 20.8727 38.9534 32.4456 49.578 34.5951L49.5814 34.5986Z" fill="#D0AE8A"/>
<path d="M79.2027 21.2327C74.908 36.5433 59.3371 45.8397 44.7788 40.8986C30.4043 36.2186 22.0624 19.4044 26.3904 4.2315C30.5113 -11.2344 46.5568 -20.3085 61.0516 -15.4803C75.6934 -10.8532 83.748 5.95738 79.1993 21.2327H79.2027ZM79.1091 21.2044C83.5407 6.2962 74.8412 -10.0979 60.7542 -14.4426C46.6738 -19.0944 31.2599 -10.4685 26.8951 4.39738C22.2796 19.4962 30.6082 35.7315 45.0128 40.0938C59.0397 44.6291 74.9114 36.2397 79.1091 21.208V21.2044Z" fill="#D0AE8A"/>
<path d="M79.2027 21.2327C74.908 36.5433 59.3371 45.8397 44.7788 40.8986C30.4043 36.2186 22.0624 19.4044 26.3904 4.2315C30.5113 -11.2344 46.5568 -20.3085 61.0516 -15.4803C75.6934 -10.8532 83.748 5.95738 79.1993 21.2327H79.2027ZM79.1091 21.2044C83.5407 6.2962 74.8412 -10.0979 60.7542 -14.4426C46.6738 -19.0944 31.2599 -10.4685 26.8951 4.39738C22.2796 19.4962 30.6082 35.7315 45.0128 40.0938C59.0397 44.6291 74.9114 36.2397 79.1091 21.208V21.2044Z" fill="#D0AE8A"/>
<path d="M71.8497 39.0208C57.6524 50.8797 36.3397 48.642 25.3207 33.2079C14.3084 18.1655 17.1258 -4.38035 31.2597 -16.0662C45.3902 -28.2039 67.0137 -25.4015 78.0527 -10.1262C89.3725 5.06435 86.271 27.3738 71.8497 39.0208ZM71.7796 38.9255C82.1 30.6173 86.4281 15.582 82.7852 2.53024C76.5321 -20.8098 49.9488 -30.2086 31.644 -15.5404C13.015 -0.490939 15.5316 29.0785 35.6412 41.2938C46.7537 48.1797 61.6128 47.4702 71.7762 38.9255H71.7796Z" fill="#D0AE8A"/>
<path d="M75.3662 44.1951C59.6214 57.3457 35.9926 54.8645 23.7705 37.7469C13.2194 23.3857 13.9647 2.10337 25.1809 -11.5978C40.0901 -30.3813 68.0904 -29.7072 82.2443 -10.3025C94.7973 6.54336 91.3582 31.281 75.3662 44.1951ZM75.2893 44.0892C90.9137 31.4081 93.31 6.75513 81.1715 -9.42016C65.5871 -30.6531 34.1712 -28.4119 21.4611 -5.1284C10.0544 15.7092 20.3348 42.1234 41.6308 49.7857C52.8236 53.9716 65.9347 51.9069 75.2927 44.0892H75.2893Z" fill="#D0AE8A"/>
<path d="M18.3394 39.6071C1.98309 15.9565 13.089 -17.6717 40.4108 -24.2505C52.8067 -27.2682 66.4326 -23.5235 75.8106 -14.4388C94.0786 2.82007 92.4543 34.0095 72.5754 49.1295C55.3133 62.5483 30.6986 57.8718 18.3361 39.6071H18.3394ZM18.4497 39.5224C32.3897 59.8871 61.3325 61.0871 77.2677 42.7024C93.457 24.4589 89.6737 -5.70699 69.4772 -18.8082C49.6852 -31.8211 23.7403 -22.3341 14.6029 -0.0140491C9.2288 12.6848 10.5556 28.2883 18.4497 39.5224Z" fill="#D0AE8A"/>
<path d="M13.7702 44.975C-6.85403 15.1514 7.15282 -27.2509 41.6034 -35.545C57.2345 -39.3533 74.4164 -34.6309 86.2442 -23.1745C103.61 -6.8474 107.423 21.0985 95.2344 42.0067C76.8795 73.7891 34.2908 74.9538 13.7702 44.975ZM13.9072 44.8691C25.1669 61.4255 45.6774 68.7703 64.253 63.7585C97.223 55.0338 111.557 14.2302 91.9425 -15.0956C71.726 -44.8592 30.414 -42.3533 12.3164 -11.5697C2.153 5.59025 2.42371 28.4608 13.9072 44.8691Z" fill="#D0AE8A"/>
<path d="M1.39053 33.081C-4.60523 14.3646 -0.394155 -7.59545 12.5699 -21.9884C36.4728 -48.8084 78.2861 -42.3637 95.4579 -10.8354C107.961 11.5904 103.218 41.0928 84.4957 58.0093C56.2013 83.7846 12.8807 70.3587 1.38719 33.081H1.39053ZM1.56099 33.021C7.8542 53.6081 26.2459 68.0116 46.5493 69.3351C78.2593 71.6222 104.338 42.9704 100.782 9.57514C95.7086 -34.9766 46.2919 -52.8884 15.4475 -22.719C1.20003 -8.78133 -4.70215 13.4434 1.55764 33.0175L1.56099 33.021Z" fill="#D0AE8A"/>
<path d="M47.5026 13.6972C48.6891 8.09246 55.6774 6.66658 58.7555 11.4595C60.7307 14.4666 59.7949 18.9278 56.797 20.7666C52.0846 23.7313 46.3262 19.3054 47.5026 13.6972ZM47.5026 13.6972C46.3897 19.1042 52.0813 23.1701 56.396 20.0995C58.9226 18.3701 59.7214 14.5795 58.1306 11.8795C55.4569 7.16423 48.6657 8.30069 47.5026 13.6972Z" fill="#D0AE8A"/>
</g>
<path d="M92 8.00353V2H6.73578V7.00118C6.73578 7.55529 7.16024 8 7.68161 8H2.94582C2.4211 8 2 8.44824 2 8.99882V13.0012C2 13.5553 2.42445 14 2.94582 14H6.73578V17H90.105V14H87.2642V7.99647H92V8.00353Z" stroke="#D0AE8A" stroke-width="3" stroke-linecap="round" stroke-linejoin="round"/>
<path d="M2.94582 8.00342H87.2609V14.0069H2.94582C2.42445 14.0069 2 13.5587 2 13.0081V9.00577C2 8.45518 2.42445 8.00695 2.94582 8.00695V8.00342Z" stroke="#D0AE8A" stroke-miterlimit="10"/>
</svg>
