<svg width="159" height="32" viewBox="0 0 159 32" fill="none" xmlns="http://www.w3.org/2000/svg">
<mask id="mask0_241_103" style="mask-type:luminance" maskUnits="userSpaceOnUse" x="2" y="2" width="155" height="28">
<path d="M157 2H2V30H157V2Z" fill="white"/>
</mask>
<g mask="url(#mask0_241_103)">
<path d="M73.4715 18.8142C64.2004 11.1394 70.5235 -2.05787 83.7253 -2.37545C92.1633 -2.60481 99.405 3.37628 99.1273 10.3454C98.7641 21.249 82.764 26.4714 73.4715 18.8142ZM73.4715 18.8142C78.9615 23.4191 88.3608 23.2956 93.5945 18.5143C98.6787 14.1211 98.4864 6.67559 93.2314 2.49412C88.1686 -1.84615 79.1538 -2.00494 73.8347 2.19418C68.0455 6.53444 67.896 14.2975 73.4715 18.8319V18.8142Z" fill="#D0AE8A"/>
<path d="M104.639 16.7674C99.5123 26.3477 85.7765 31.0585 74.1129 26.5595C62.7056 22.2192 57.4932 10.5922 62.556 1.11774C69.1355 -11.4973 89.4722 -14.3378 100.751 -4.26349C107.074 1.27653 108.484 9.92177 104.639 16.7674ZM104.554 16.7321C112.543 1.68232 94.3427 -14.0026 75.7791 -8.32146C64.2864 -4.89865 57.8778 6.16373 62.4706 15.6382C69.6482 30.8468 96.308 31.6407 104.554 16.7321Z" fill="#D0AE8A"/>
<path d="M78.1068 33.0171C56.9584 29.6119 46.4482 9.5867 58.8169 -5.23372C65.5886 -13.4026 78.1068 -17.7605 89.9199 -15.855C101.797 -14.1436 111.688 -6.01002 113.952 3.76439C118.182 21.4077 99.3192 36.5634 78.1068 32.9994V33.0171ZM78.1068 32.9289C94.0215 35.6106 109.787 26.5067 112.841 13.4506C116.964 -3.45174 98.6997 -18.7485 78.1708 -15.4669C66.5499 -13.7555 57.0011 -5.62187 54.9717 3.90554C51.7888 16.8734 62.1921 30.4235 78.0854 32.9289H78.1068Z" fill="#D0AE8A"/>
<path d="M122.454 17.2791C116.024 35.2047 92.7179 46.0907 70.9287 40.3037C49.4171 34.8166 36.9203 15.1443 43.4144 -2.6226C49.588 -20.7247 73.5989 -31.346 95.3027 -25.7001C117.22 -20.2836 129.268 -0.611264 122.475 17.2791H122.454ZM122.326 17.2438C128.948 -0.205467 115.938 -19.4014 94.8541 -24.4827C73.7912 -29.9345 50.7202 -19.8249 44.1834 -2.42853C37.2835 15.2501 49.7375 34.252 71.2918 39.3509C92.2907 44.6616 116.045 34.8342 122.326 17.2438Z" fill="#D0AE8A"/>
<path d="M122.454 17.2791C116.024 35.2047 92.7179 46.0907 70.9287 40.3037C49.4171 34.8166 36.9203 15.1443 43.4144 -2.6226C49.588 -20.7247 73.5989 -31.346 95.3027 -25.7001C117.22 -20.2836 129.268 -0.611264 122.475 17.2791H122.454ZM122.326 17.2438C128.948 -0.205467 115.938 -19.4014 94.8541 -24.4827C73.7912 -29.9345 50.7202 -19.8249 44.1834 -2.42853C37.2835 15.2501 49.7375 34.252 71.2918 39.3509C92.2907 44.6616 116.045 34.8342 122.326 17.2438Z" fill="#D0AE8A"/>
<path d="M111.453 38.0986C90.1975 51.9839 58.304 49.355 41.8125 31.2882C25.321 13.6802 29.5507 -12.7143 50.6991 -26.3879C71.8475 -40.5908 104.211 -37.3091 120.745 -19.4364C137.685 -1.65191 133.05 24.4603 111.453 38.0986ZM111.346 37.9927C126.791 28.2712 133.263 10.6632 127.816 -4.61599C118.459 -31.9279 78.662 -42.9374 51.2759 -25.7704C23.3985 -8.14466 27.1582 26.454 57.2572 40.7627C73.8983 48.8257 96.1361 47.9965 111.346 37.9927Z" fill="#D0AE8A"/>
<path d="M116.729 44.1676C93.1667 59.5526 57.7912 56.6591 39.5053 36.6163C23.7188 19.8022 24.8296 -5.11024 41.6202 -21.1481C63.9435 -43.1317 105.834 -42.3554 127.025 -19.6307C145.824 0.0945452 140.654 29.0473 116.729 44.1676ZM116.622 44.0441C140.014 29.2061 143.602 0.341551 125.423 -18.5898C102.096 -43.4493 55.0782 -40.8204 36.0447 -13.5614C18.9764 10.8217 34.3571 41.7505 66.2292 50.7133C82.977 55.6182 102.609 53.201 116.601 44.0441H116.622Z" fill="#D0AE8A"/>
<path d="M31.3649 38.7863C6.88399 11.1039 23.5036 -28.2584 64.3905 -35.9686C82.9541 -39.4972 103.333 -35.1217 117.368 -24.4827C144.712 -4.28109 142.276 32.223 112.519 49.9193C86.6711 65.6219 49.843 60.1524 31.3435 38.7687L31.3649 38.7863ZM31.5358 38.6805C52.4064 62.5166 95.7286 63.9281 119.569 42.4032C143.793 21.0548 138.132 -14.2672 107.905 -29.5993C78.2758 -44.8255 39.4397 -33.7279 25.768 -7.59804C17.7145 7.25766 19.7226 25.5362 31.5144 38.6805H31.5358Z" fill="#D0AE8A"/>
<path d="M24.5333 45.0676C-6.33477 10.169 14.6214 -39.4617 66.1893 -49.1832C89.5807 -53.647 115.301 -48.107 133.01 -34.698C159.007 -15.5903 164.711 17.1205 146.468 41.5918C118.996 78.8017 55.2519 80.1602 24.5333 45.0676ZM24.747 44.9441C41.6016 64.3165 72.2988 72.9264 100.091 67.0512C149.437 56.8357 170.884 9.07512 141.533 -25.2588C111.284 -60.0868 49.4414 -57.1404 22.3544 -21.1127C7.14466 -1.01688 7.55054 25.7481 24.747 44.9441Z" fill="#D0AE8A"/>
<path d="M6.00974 31.1468C-2.96231 9.23377 3.33948 -16.4726 22.7362 -33.322C58.5176 -64.7095 121.087 -57.1758 146.807 -20.2659C165.52 5.98739 158.428 40.5154 130.401 60.3289C88.0612 90.4991 23.2062 74.7788 6.00974 31.1468ZM6.26608 31.0762C15.6867 55.1771 43.201 72.0265 73.5991 73.5791C121.066 76.2609 160.094 42.7209 154.775 3.62318C147.17 -48.5129 73.2146 -69.4732 27.0513 -34.1689C5.73203 -17.8488 -3.11184 8.15752 6.26608 31.0762Z" fill="#D0AE8A"/>
<path d="M75.0081 8.45755C76.7811 1.89423 87.2485 0.235754 91.8414 5.8287C94.7893 9.33973 93.4008 14.5798 88.9148 16.7146C81.8653 20.1904 73.2351 15.0032 75.0081 8.43991V8.45755ZM75.0081 8.45755C73.3419 14.7915 81.8653 19.5376 88.3166 15.956C92.0977 13.927 93.294 9.49851 90.9014 6.34035C86.9067 0.81798 76.7384 2.15888 74.9867 8.4752L75.0081 8.45755Z" fill="#D0AE8A"/>
<path d="M76.4844 51.2779C76.9116 45.3674 77.9156 39.2628 78.9196 33.4052C80.0091 27.5476 81.2267 21.4783 82.9143 15.7266C82.4871 21.6371 81.5044 27.7417 80.4791 33.5993C79.3682 39.4569 78.1506 45.5262 76.4844 51.2779Z" fill="#D0AE8A"/>
<path d="M101.52 13.3799C109.253 14.3326 116.815 16.1675 123.928 18.8317C116.195 17.8966 108.633 16.044 101.52 13.3799Z" fill="#D0AE8A"/>
</g>
<path d="M157 2H2V30H157V2Z" stroke="#D0AE8A" stroke-width="3" stroke-linecap="round" stroke-linejoin="round"/>
</svg>
