<svg width="314" height="61" viewBox="0 0 314 61" fill="none" xmlns="http://www.w3.org/2000/svg">
<path d="M86.345 44.865C84.4043 44.865 82.5867 44.4277 80.892 43.553C80.1267 43.1703 79.4843 42.7193 78.965 42.2C78.5823 42.8287 78.104 43.389 77.53 43.881C77.038 44.2363 76.7647 44.4277 76.71 44.455H75.685V36.665H77.325C77.735 38.0043 78.309 39.207 79.047 40.273C80.7143 42.651 82.8737 43.84 85.525 43.84C87.083 43.84 88.3267 43.3753 89.256 42.446C90.1853 41.5167 90.65 40.273 90.65 38.715C90.65 37.813 90.3767 37.0067 89.83 36.296C89.3107 35.5853 88.6547 34.9567 87.862 34.41C87.0693 33.8633 85.9623 33.18 84.541 32.36C82.737 31.3487 81.2747 30.433 80.154 29.613C79.0333 28.793 78.0767 27.768 77.284 26.538C76.4913 25.2807 76.095 23.8047 76.095 22.11C76.095 20.7707 76.464 19.568 77.202 18.502C77.9673 17.4087 79.1017 16.5477 80.605 15.919C82.1083 15.263 83.9533 14.935 86.14 14.935C87.7253 14.935 89.3107 15.386 90.896 16.288C91.4973 16.616 92.0987 17.0533 92.7 17.6C93.1647 16.8893 93.643 16.329 94.135 15.919C94.627 15.5637 94.9003 15.3723 94.955 15.345H95.98V23.135H94.34C93.9847 21.823 93.4517 20.634 92.741 19.568C92.085 18.5293 91.265 17.6683 90.281 16.985C89.3243 16.3017 88.2173 15.96 86.96 15.96C85.894 15.96 84.9783 16.3837 84.213 17.231C83.4477 18.0783 83.065 19.158 83.065 20.47C83.065 21.4813 83.352 22.397 83.926 23.217C84.5273 24.0097 85.2517 24.7067 86.099 25.308C86.9737 25.9093 88.149 26.6337 89.625 27.481C91.347 28.465 92.741 29.3397 93.807 30.105C94.873 30.8703 95.775 31.827 96.513 32.975C97.251 34.0957 97.62 35.394 97.62 36.87C97.62 38.346 97.1963 39.699 96.349 40.929C95.5017 42.1317 94.2307 43.0883 92.536 43.799C90.8413 44.5097 88.7777 44.865 86.345 44.865ZM99.883 43.635L103.163 42.405L114.438 15.14H115.668L127.353 43.02L129.403 43.635V44.25H124.483C123.062 44.25 121.9 43.9357 120.998 43.307C120.096 42.651 119.426 41.8037 118.989 40.765L116.898 35.845H107.099L104.393 42.405L107.468 43.635V44.25H99.883V43.635ZM107.509 34.82H116.488L111.978 24.037L107.509 34.82ZM133.49 43.635L135.95 43.02V16.78L133.49 16.165V15.55H145.175V16.165L142.715 16.78V29.654L152.76 17.395L149.685 16.165V15.55H157.475V16.165L154.195 17.395L147.02 26.21L158.09 43.02L160.14 43.635V44.25H154.4C153.17 44.25 152.118 43.9493 151.243 43.348C150.396 42.7193 149.603 41.8583 148.865 40.765L142.715 31.335V43.02L145.175 43.635V44.25H133.49V43.635ZM192.775 16.575L190.52 16.165V15.55H195.44C196.889 15.55 198.078 15.878 199.007 16.534C199.937 17.19 200.593 18.0237 200.975 19.035L207.166 34.82L210.774 24.242L207.74 16.575L205.485 16.165V15.55H210.405C211.854 15.55 213.029 15.878 213.931 16.534C214.833 17.1627 215.503 17.9963 215.94 19.035L222.131 34.82L228.035 17.395L224.96 16.165V15.55H232.545V16.165L229.265 17.395L220.04 44.66H218.81L211.43 25.923L205.075 44.66H203.845L192.775 16.575ZM245.073 44.865C241.683 44.865 239.018 43.9083 237.078 41.995C235.164 40.0543 234.208 37.3893 234.208 34C234.208 30.6107 235.164 27.9593 237.078 26.046C239.018 24.1053 241.683 23.135 245.073 23.135C248.462 23.135 251.113 24.1053 253.027 26.046C254.967 27.9593 255.938 30.6107 255.938 34C255.938 37.3893 254.967 40.0543 253.027 41.995C251.113 43.9083 248.462 44.865 245.073 44.865ZM245.073 44.045C246.166 44.045 247.082 43.2797 247.82 41.749C248.585 40.2183 248.968 37.6353 248.968 34C248.968 30.3647 248.585 27.7817 247.82 26.251C247.082 24.7203 246.166 23.955 245.073 23.955C243.979 23.955 243.05 24.7203 242.285 26.251C241.547 27.7817 241.178 30.3647 241.178 34C241.178 37.6353 241.547 40.2183 242.285 41.749C243.05 43.2797 243.979 44.045 245.073 44.045ZM272.967 44.865C269.578 44.865 266.913 43.9083 264.972 41.995C263.059 40.0543 262.102 37.3893 262.102 34C262.102 30.6107 263.059 27.9593 264.972 26.046C266.913 24.1053 269.578 23.135 272.967 23.135C276.356 23.135 279.008 24.1053 280.921 26.046C282.862 27.9593 283.832 30.6107 283.832 34C283.832 37.3893 282.862 40.0543 280.921 41.995C279.008 43.9083 276.356 44.865 272.967 44.865ZM272.967 44.045C274.06 44.045 274.976 43.2797 275.714 41.749C276.479 40.2183 276.862 37.6353 276.862 34C276.862 30.3647 276.479 27.7817 275.714 26.251C274.976 24.7203 274.06 23.955 272.967 23.955C271.874 23.955 270.944 24.7203 270.179 26.251C269.441 27.7817 269.072 30.3647 269.072 34C269.072 37.6353 269.441 40.2183 270.179 41.749C270.944 43.2797 271.874 44.045 272.967 44.045ZM298.401 44.865C296.789 44.865 295.354 44.455 294.096 43.635C292.839 42.7877 291.841 41.5577 291.103 39.945C290.365 38.305 289.996 36.3233 289.996 34C289.996 30.5013 290.803 27.8227 292.415 25.964C294.055 24.078 296.256 23.135 299.016 23.135C300.328 23.135 301.476 23.4083 302.46 23.955C302.87 24.1463 303.294 24.4197 303.731 24.775V16.78L301.271 16.165V15.55H306.601C309.061 15.55 310.291 16.78 310.291 19.24V43.02L312.751 43.635V44.25H309.061C307.421 44.25 306.15 43.7443 305.248 42.733C304.866 42.323 304.565 41.8037 304.346 41.175C303.991 41.8583 303.54 42.4733 302.993 43.02C301.763 44.25 300.233 44.865 298.401 44.865ZM300.041 43.43C301.053 43.43 301.968 42.8833 302.788 41.79C303.089 41.38 303.403 40.8333 303.731 40.15V26.005C303.431 25.7043 303.116 25.431 302.788 25.185C302.05 24.6383 301.34 24.365 300.656 24.365C299.481 24.365 298.565 25.0483 297.909 26.415C297.281 27.7817 296.966 30.31 296.966 34C296.966 37.526 297.253 39.986 297.827 41.38C298.429 42.7467 299.167 43.43 300.041 43.43Z" fill="url(#paint0_linear_359_237)"/>
<path d="M43.8593 9.50683C43.4193 8.44897 42.8636 7.45119 42.2048 6.53065C41.7241 5.85903 41.1876 5.22603 40.6061 4.64452C39.2241 3.26265 37.5739 2.15115 35.7413 1.3894C33.973 0.655549 32.0353 0.25 30.001 0.25C27.9666 0.25 26.0289 0.655549 24.2606 1.3894C22.428 2.149 20.7778 3.26265 19.3959 4.64452C18.8122 5.22817 18.2778 5.85903 17.7972 6.53065C17.1384 7.45119 16.5826 8.44897 16.1427 9.50683C15.4088 11.2749 15.0032 13.2147 15.0032 15.2489C15.0032 15.3605 15.0032 15.4721 15.0075 15.5815C15.0461 17.3045 15.3723 18.9546 15.9452 20.4888C15.5203 19.1928 15.2907 17.8152 15.2907 16.3883C15.2907 16.1093 15.3015 15.8347 15.3186 15.56C15.3251 15.457 15.3315 15.3562 15.3401 15.2532C15.5182 13.189 16.177 11.2535 17.2092 9.54331C17.9667 8.29232 18.9238 7.16151 20.0418 6.19377C20.6104 5.70239 21.2199 5.24963 21.8637 4.84623C24.1941 3.38496 26.9945 2.53309 30.0031 2.53309C33.0138 2.53309 35.8121 3.38496 38.1425 4.84623C38.7885 5.24963 39.3958 5.70024 39.9644 6.19377C41.0824 7.16151 42.0395 8.29232 42.797 9.54331C43.8314 11.2535 44.488 13.189 44.6661 15.2532C44.6747 15.354 44.6811 15.457 44.6876 15.56C44.7047 15.8347 44.7155 16.1115 44.7155 16.3883C44.7155 17.8152 44.4859 19.1928 44.061 20.4888C44.6318 18.9568 44.9601 17.3045 44.9987 15.5815C45.0009 15.4699 45.003 15.3605 45.003 15.2489C45.003 13.2147 44.5974 11.2749 43.8635 9.50683H43.8593Z" fill="url(#paint1_linear_359_237)"/>
<path d="M16.1157 39.511C16.0513 39.6848 15.9891 39.8586 15.9312 40.0346C15.9955 39.8586 16.0663 39.6826 16.1372 39.511C16.1307 39.511 16.1221 39.511 16.1157 39.511Z" fill="url(#paint2_linear_359_237)"/>
<path d="M44.9944 44.9098C44.9558 43.1975 44.6318 41.5582 44.0674 40.0347C44.4859 41.3221 44.7133 42.689 44.7133 44.1052C44.7133 44.3841 44.7026 44.6588 44.6854 44.9335C44.679 45.0386 44.6704 45.1416 44.6618 45.2446C44.4837 47.3088 43.8249 49.2443 42.7906 50.9545C42.0352 52.2033 41.0781 53.332 39.9623 54.2997C39.3915 54.7932 38.7799 55.246 38.134 55.6515C35.8078 57.1085 33.016 57.9582 30.0138 57.9604C30.0095 57.9604 30.0052 57.9604 30.001 57.9604C29.9967 57.9604 29.9924 57.9604 29.9881 57.9604C26.9859 57.9582 24.1941 57.1085 21.8679 55.6515C21.2199 55.246 20.6083 54.7932 20.0396 54.2997C18.9238 53.332 17.9667 52.2054 17.2113 50.9545C16.177 49.2464 15.5182 47.3088 15.3401 45.2446C15.3315 45.1416 15.3229 45.0364 15.3165 44.9335C15.2993 44.6588 15.2886 44.382 15.2886 44.1052C15.2886 42.689 15.5139 41.3243 15.9345 40.0368C15.3701 41.5603 15.0461 43.1997 15.0075 44.912C15.0053 45.0236 15.0032 45.1373 15.0032 45.251C15.0032 47.2852 15.4088 49.225 16.1427 50.9931C16.5804 52.0488 17.1362 53.0444 17.7929 53.9628C18.2757 54.6366 18.8122 55.2717 19.3959 55.8554C20.7778 57.2373 22.428 58.3488 24.2606 59.1105C26.0289 59.8444 27.9666 60.2499 30.001 60.2499C32.0353 60.2499 33.973 59.8444 35.7413 59.1105C37.5739 58.3509 39.2241 57.2373 40.606 55.8554C41.1919 55.2696 41.7284 54.6366 42.209 53.9628C42.8657 53.0444 43.4193 52.0488 43.8592 50.9931C44.5932 49.225 44.9987 47.2852 44.9987 45.251C44.9987 45.1373 44.9987 45.0257 44.9944 44.912V44.9098Z" fill="url(#paint3_linear_359_237)"/>
<path d="M9.25746 16.3904C8.19953 16.8303 7.20168 17.386 6.28108 18.0448C5.60941 18.5255 4.97851 19.0619 4.39482 19.6434C3.01286 21.0253 1.90128 22.6754 1.13948 24.5078C0.405577 26.276 0 28.2157 0 30.2478C0 32.2798 0.405577 34.2196 1.13948 35.9877C1.89913 37.8202 3.01286 39.4724 4.39482 40.8521C4.97851 41.4358 5.60941 41.9701 6.28108 42.4507C7.20168 43.1095 8.19953 43.6652 9.25746 44.1051C11.0257 44.839 12.9656 45.2445 14.9999 45.2445C15.1115 45.2445 15.2231 45.2445 15.3325 45.2402C17.0557 45.2016 18.7059 44.8754 20.2402 44.3025C18.9441 44.7274 17.5664 44.957 16.1394 44.957C15.8604 44.957 15.5858 44.9462 15.3111 44.9291C15.2081 44.9226 15.1072 44.9162 15.0042 44.9076C12.9398 44.7295 11.0042 44.0708 9.29394 43.0387C8.04288 42.2812 6.91412 41.3242 5.94417 40.2063C5.45276 39.6376 4.99997 39.0282 4.59654 38.3845C3.13517 36.0542 2.28325 33.254 2.28325 30.2435C2.28325 27.233 3.13517 24.4349 4.59654 22.1024C4.99997 21.4566 5.45061 20.8493 5.94417 20.2807C6.91198 19.1627 8.04288 18.2057 9.29394 17.4483C11.0021 16.414 12.9398 15.7574 15.0042 15.5793C15.1051 15.5707 15.2081 15.5643 15.3111 15.5579C15.5858 15.5407 15.8604 15.53 16.1394 15.53C17.5664 15.53 18.9441 15.7596 20.2402 16.1844C18.7081 15.6136 17.0557 15.2853 15.3325 15.2467C15.2209 15.2446 15.1115 15.2424 14.9999 15.2424C12.9656 15.2424 11.0257 15.648 9.25746 16.3818V16.3904Z" fill="url(#paint4_linear_359_237)"/>
<path d="M44.6607 15.2555C42.9482 15.2941 41.3088 15.6182 39.7852 16.1825C41.0727 15.7641 42.4397 15.5366 43.856 15.5366C44.1349 15.5366 44.4096 15.5473 44.6843 15.5645C44.7894 15.5709 44.8924 15.5795 44.9954 15.5881C47.0598 15.7662 48.9954 16.425 50.7057 17.4592C51.9546 18.2145 53.0834 19.1715 54.0512 20.2873C54.5447 20.8581 54.9975 21.4697 55.4031 22.1155C56.8602 24.4415 57.71 27.2332 57.7121 30.2372C57.7121 30.2415 57.7121 30.2458 57.7121 30.2501C57.7121 30.2544 57.7121 30.2587 57.7121 30.263C57.71 33.2649 56.8602 36.0566 55.4031 38.3847C54.9975 39.0327 54.5447 39.6443 54.0512 40.2129C53.0834 41.3287 51.9568 42.2857 50.7057 43.041C48.9976 44.0753 47.0598 44.734 44.9954 44.9121C44.8924 44.9207 44.7873 44.9293 44.6843 44.9357C44.4096 44.9529 44.1349 44.9636 43.856 44.9636C42.4397 44.9636 41.0748 44.7383 39.7873 44.3178C41.3109 44.8821 42.9504 45.2061 44.6607 45.2447C44.7723 45.2469 44.886 45.249 44.9997 45.249C47.034 45.249 48.974 44.8435 50.7422 44.1096C51.798 43.6719 52.7937 43.1161 53.7121 42.4595C54.3859 41.9767 55.0211 41.4403 55.6048 40.8545C56.9868 39.4726 58.0984 37.8225 58.8602 35.99C59.5941 34.2219 59.9996 32.2822 59.9996 30.2501C59.9996 28.2181 59.5941 26.2783 58.8602 24.5102C58.1005 22.6777 56.9868 21.0255 55.6048 19.6457C55.019 19.06 54.3859 18.5235 53.7121 18.0407C52.7937 17.3841 51.798 16.8305 50.7422 16.3906C48.974 15.6568 47.034 15.2512 44.9997 15.2512C44.886 15.2512 44.7744 15.2512 44.6607 15.2555Z" fill="url(#paint5_linear_359_237)"/>
<path d="M25.1323 5.78198C24.0722 5.34424 22.9735 5.03311 21.8577 4.84643C21.0422 4.71124 20.2182 4.64258 19.392 4.64258C17.4371 4.64258 15.4843 5.02238 13.6495 5.78198C11.8813 6.51368 10.2225 7.5973 8.78477 9.03496C7.34701 10.4726 6.26332 12.1313 5.53157 13.8994C4.77192 15.734 4.39209 17.6867 4.39209 19.6415C4.39209 20.4654 4.46076 21.2916 4.59595 22.107C4.7805 23.2228 5.0938 24.3214 5.53157 25.3814C6.26332 27.1517 7.34701 28.8103 8.78691 30.248C8.86631 30.3274 8.94571 30.4046 9.02511 30.4797C10.2697 31.6706 11.6689 32.6062 13.1581 33.2864C11.9414 32.6706 10.8041 31.8595 9.79549 30.8509C9.59807 30.6535 9.41137 30.4518 9.22897 30.2458C9.1603 30.1686 9.09378 30.0913 9.02725 30.0141C7.6925 28.4284 6.78907 26.5937 6.31053 24.654C5.96075 23.2335 5.83843 21.7593 5.94358 20.2831C5.99723 19.5342 6.10881 18.7832 6.27834 18.0407C6.89422 15.3585 8.26975 12.7772 10.3985 10.6486C12.5272 8.51998 15.1088 7.14239 17.7912 6.5287C18.5336 6.35919 19.2826 6.24546 20.0315 6.19397C21.5057 6.08882 22.9821 6.21113 24.4027 6.56089C26.3426 7.0394 28.1774 7.94277 29.7611 9.27743C29.8383 9.34395 29.9156 9.41047 29.9928 9.47699C30.1988 9.65938 30.4005 9.8482 30.598 10.0435C31.6065 11.052 32.4198 12.1892 33.0336 13.4059C32.3533 11.9189 31.4177 10.5177 30.2267 9.27314C30.1495 9.19375 30.0722 9.11435 29.995 9.03496C28.5572 7.5973 26.8984 6.51154 25.128 5.77983L25.1323 5.78198Z" fill="url(#paint6_linear_359_237)"/>
<path d="M50.9693 30.0138C49.7332 28.8315 48.3427 27.9002 46.8663 27.2222C48.0723 27.8359 49.1989 28.6427 50.201 29.6426C50.3985 29.84 50.5852 30.0417 50.7676 30.2477C50.8362 30.3249 50.9049 30.4043 50.9714 30.4837C52.304 32.0695 53.2075 33.9041 53.686 35.8438C54.0358 37.2622 54.156 38.7363 54.0508 40.2083C53.9972 40.9615 53.8856 41.7125 53.7139 42.4571C53.098 45.1329 51.7246 47.7078 49.6045 49.8321C49.6023 49.8342 49.598 49.8385 49.5959 49.8407C49.5937 49.8428 49.5895 49.8471 49.5873 49.8493C47.4629 51.9714 44.8878 53.3447 42.2118 53.9584C41.4672 54.1301 40.7161 54.2416 39.9629 54.2953C38.4886 54.4004 37.0166 54.2803 35.5981 53.9305C33.6582 53.4541 31.8234 52.5508 30.2376 51.2161C30.1582 51.1496 30.0788 51.0809 30.0016 51.0123C29.7956 50.8299 29.5938 50.641 29.3964 50.4458C28.3943 49.4437 27.5896 48.3193 26.9758 47.1134C27.6539 48.5897 28.5831 49.978 29.7677 51.2161C29.8449 51.2977 29.9243 51.3792 30.0037 51.4586C31.4415 52.8962 33.1003 53.982 34.8706 54.7137C35.9264 55.1514 37.023 55.4626 38.1367 55.6471C38.9543 55.7823 39.7826 55.851 40.6088 55.851C42.5637 55.851 44.5165 55.4712 46.3513 54.7116C48.1195 53.9799 49.7783 52.8962 51.2161 51.4586C52.6538 50.0209 53.7375 48.3622 54.4693 46.5941C55.2289 44.7595 55.6087 42.8069 55.6087 40.8521C55.6087 40.0238 55.5401 39.1977 55.4049 38.3801C55.2203 37.2665 54.9092 36.17 54.4714 35.1143C53.7396 33.344 52.656 31.6854 51.2161 30.2477C51.1367 30.1683 51.0551 30.0889 50.9736 30.0117L50.9693 30.0138Z" fill="url(#paint7_linear_359_237)"/>
<path d="M5.53157 35.1165C5.0938 36.1765 4.78264 37.2751 4.59595 38.3909C4.46076 39.2063 4.39209 40.0303 4.39209 40.8564C4.39209 42.8112 4.77192 44.7638 5.53157 46.5985C6.26332 48.3666 7.34701 50.0252 8.78477 51.4629C10.2225 52.9006 11.8813 53.9842 13.6496 54.7159C15.4843 55.4755 17.4371 55.8553 19.392 55.8553C20.216 55.8553 21.0422 55.7866 21.8577 55.6514C22.9735 55.4669 24.0722 55.1536 25.1323 54.7159C26.9027 53.9842 28.5615 52.9006 29.9993 51.4608C30.0787 51.3814 30.1559 51.302 30.231 51.2226C31.422 49.978 32.3576 48.579 33.0379 47.0898C32.422 48.3065 31.6108 49.4437 30.6023 50.4523C30.4048 50.6497 30.2031 50.8363 29.9971 51.0187C29.9199 51.0874 29.8426 51.1539 29.7654 51.2204C28.1795 52.5551 26.3448 53.4585 24.407 53.937C22.9864 54.2867 21.5122 54.409 20.0358 54.3039C19.2869 54.2503 18.5358 54.1387 17.7955 53.9692C15.1131 53.3533 12.5315 51.9779 10.4028 49.8493C8.27404 47.7207 6.89851 45.1393 6.28264 42.4571C6.11311 41.7147 5.99938 40.9658 5.94788 40.217C5.84273 38.7428 5.96504 37.2665 6.31483 35.846C6.79336 33.9063 7.69679 32.0716 9.03155 30.4859C9.09807 30.4087 9.1646 30.3314 9.23112 30.2542C9.41352 30.0482 9.60021 29.8465 9.79764 29.6491C10.8062 28.6406 11.9436 27.8273 13.1603 27.2136C11.6732 27.8938 10.2719 28.8294 9.02725 30.0203C8.94786 30.0975 8.86846 30.1748 8.78906 30.252C7.3513 31.6897 6.26547 33.3484 5.53371 35.1186L5.53157 35.1165Z" fill="url(#paint8_linear_359_237)"/>
<path d="M29.7633 9.27928C28.5809 10.5152 27.6495 11.9057 26.9714 13.382C27.5852 12.1761 28.392 11.0495 29.392 10.0475C29.5894 9.85005 29.7912 9.66123 29.9972 9.48098C30.0744 9.41232 30.1538 9.34365 30.2332 9.27713C31.819 7.94461 33.6538 7.04125 35.5937 6.56274C37.0122 6.21298 38.4864 6.09282 39.9585 6.19796C40.7117 6.25161 41.4628 6.36318 42.2074 6.53484C44.8834 7.15068 47.4585 8.52397 49.5829 10.644C49.5851 10.6461 49.5893 10.6504 49.5915 10.6526C49.5936 10.6547 49.5979 10.659 49.6001 10.6612C51.7224 12.7855 53.0936 15.3604 53.7095 18.0361C53.8812 18.7807 53.9928 19.5317 54.0464 20.2849C54.1516 21.7591 54.0314 23.231 53.6816 24.6494C53.2052 26.5892 52.3018 28.4238 50.967 30.0095C50.9005 30.0889 50.8318 30.1683 50.7632 30.2455C50.5808 30.4515 50.3941 30.6532 50.1966 30.8507C49.1945 31.8527 48.07 32.6574 46.864 33.2711C48.3404 32.593 49.7288 31.6618 50.967 30.4794C51.0486 30.4022 51.1301 30.3228 51.2095 30.2434C52.6473 28.8057 53.7331 27.1471 54.4649 25.3768C54.9026 24.3211 55.2138 23.2246 55.3983 22.111C55.5335 21.2934 55.6022 20.4652 55.6022 19.639C55.6022 17.6842 55.2224 15.7316 54.4627 13.897C53.731 12.1289 52.6473 10.4702 51.2095 9.03252C49.7717 7.59486 48.113 6.51124 46.3447 5.77954C44.51 5.01994 42.5572 4.64014 40.6023 4.64014C39.7739 4.64014 38.9478 4.7088 38.1302 4.84398C37.0165 5.02852 35.9199 5.33965 34.8641 5.77739C33.0937 6.5091 31.4349 7.59271 29.9972 9.03252C29.9178 9.11191 29.8384 9.19345 29.7611 9.27499L29.7633 9.27928Z" fill="url(#paint9_linear_359_237)"/>
<path d="M28.3115 40.994C28.3008 40.9253 28.29 40.8545 28.2793 40.7858C28.2492 40.5562 28.2321 40.3224 28.2321 40.082C28.2321 40.2043 28.2256 40.3245 28.2192 40.4447C28.2085 40.6035 28.1913 40.7601 28.1656 40.9146C27.9038 42.5432 26.8909 43.9208 25.4939 44.6804C25.6033 44.7147 25.7149 44.7469 25.8265 44.7791C26.2214 44.8907 26.6226 44.9873 27.0282 45.0666C27.8651 44.3929 28.3995 43.3629 28.3995 42.2042C28.3995 43.2599 28.2085 44.2706 27.8608 45.2061C28.5454 45.3005 29.2449 45.352 29.9574 45.352C30.7128 45.352 31.4552 45.2962 32.1806 45.189C30.1977 44.6761 28.6677 43.0367 28.3115 40.994Z" fill="#DDB691"/>
<path d="M30.8471 27.9432C30.2141 29.6534 29.8771 30.8851 29.5767 32.5459C29.5681 32.5631 29.5595 32.5802 29.551 32.5974C29.5467 32.6081 29.5402 32.6188 29.5338 32.6274C29.4995 32.6103 29.4651 32.5909 29.4308 32.5738C29.4286 32.5695 29.4265 32.5652 29.4244 32.5588C29.1733 32.0867 28.8943 31.6275 28.5917 31.1833C28.5703 31.1533 28.551 31.1254 28.5295 31.0954C28.0016 30.3079 27.6948 29.3616 27.6948 28.3423C27.6948 26.1858 29.0746 24.3512 30.9995 23.6731C29.7634 23.8555 28.684 24.5143 27.948 25.4563C27.9566 25.3426 27.963 25.231 27.963 25.1151C27.963 23.4929 27.1068 22.0703 25.8214 21.2742C25.8235 21.2763 25.8257 21.2785 25.8278 21.2806C27.2763 22.8599 27.7098 25.01 27.1669 26.9304C27.154 26.9733 27.1411 27.0163 27.1282 27.0613C27.0445 27.3488 26.9887 27.645 26.9608 27.9518C26.948 28.0956 26.9394 28.2415 26.9394 28.3874C26.9394 28.6899 26.9694 28.9861 27.0231 29.2736C26.4265 28.6642 25.7699 28.102 25.0574 27.5999C25.0038 27.5634 24.948 27.5269 24.8943 27.4905C24.7699 27.4046 24.6454 27.321 24.5188 27.2394C24.5059 27.2308 24.493 27.2244 24.4802 27.2158C23.7763 26.7416 23.0875 26.2438 22.418 25.7202C22.3557 25.6751 22.2956 25.6279 22.2377 25.5764C21.9587 25.3361 21.7227 25.04 21.551 24.6902C20.9695 23.5144 21.2871 22.1239 22.2334 21.257C21.5253 21.8836 21.0768 22.7998 21.0768 23.8191C21.0768 24.1345 21.1197 24.4392 21.2012 24.731C21.3257 25.1838 21.5424 25.6 21.8278 25.9562C20.3471 25.5743 18.8064 25.7846 17.5081 26.482C16.4974 27.0248 15.6347 27.8595 15.0618 28.9389C15.9502 27.2995 17.6819 26.1837 19.6755 26.1773C19.6819 26.1773 19.6884 26.1773 19.6948 26.1773C19.7077 26.1773 19.7227 26.1773 19.7356 26.1773C20.8557 26.1837 21.9609 26.4283 22.978 26.8832C23.0467 26.9133 23.1132 26.9433 23.1819 26.9755C23.9909 27.366 24.742 27.8939 25.39 28.5483C25.8471 29.0097 26.257 29.5268 26.6132 30.0976C27.4287 31.5331 28.154 33.0351 28.7806 34.6015C29.154 35.5328 29.4909 36.4855 29.7913 37.4597C29.8643 37.6957 29.9329 37.9361 30.0016 38.1742C30.2634 38.9467 30.6218 39.6612 31.0638 40.305C31.7419 41.2942 32.6089 42.116 33.6003 42.7383C32.9136 42.1911 32.2977 41.5302 31.7849 40.7642C31.7462 40.7084 31.7076 40.6504 31.6711 40.5947C31.6604 40.5775 31.6497 40.5625 31.6389 40.5453C31.6196 40.5153 31.6025 40.4831 31.5831 40.453C31.5467 40.3951 31.5123 40.335 31.478 40.2771C31.3385 40.0368 31.2119 39.7943 31.0982 39.5454C30.39 38.0111 30.1583 36.3525 30.3664 34.7582C30.4415 34.1788 30.5767 33.608 30.7656 33.0544C30.7784 33.0158 30.7934 32.975 30.8085 32.9364C31.0488 32.2669 31.3707 31.6232 31.7698 31.0224C32.4329 30.0268 33.3106 29.1491 34.39 28.4711C35.4072 27.8316 36.5059 27.4261 37.6217 27.2437C37.7097 27.2287 37.7977 27.218 37.8835 27.2072C38.3664 27.1257 38.817 26.9733 39.2312 26.7609C39.5852 26.5785 39.9093 26.3554 40.199 26.0957C41.2805 25.128 41.89 23.6732 41.7226 22.1368C41.89 23.759 41.0938 25.2782 39.7762 26.0957C39.3149 26.3811 38.7913 26.5807 38.2226 26.6686C38.1003 26.688 37.978 26.7008 37.8578 26.7073C37.832 26.7073 37.8063 26.7116 37.7805 26.7116C37.1024 26.7459 36.42 26.8618 35.7419 27.0635C35.7376 27.0635 35.7333 27.0656 35.729 27.0678C34.8685 27.3252 34.0788 27.705 33.3707 28.1836C33.3664 28.1878 33.36 28.19 33.3557 28.1943C33.2913 28.2372 33.2312 28.2823 33.169 28.3273C33.1153 28.3659 33.0595 28.4067 33.0059 28.4453C32.9544 28.484 32.9029 28.5247 32.8514 28.5633C32.8042 28.5998 32.757 28.6363 32.7119 28.6728C32.699 28.6835 32.6861 28.6942 32.6733 28.7028C32.2334 29.059 31.8321 29.4281 31.4651 29.8165C32.2162 28.2715 32.6947 26.5292 32.8213 24.8877C32.8664 24.3061 32.8664 23.7139 32.8213 23.1153V23.141C32.7806 22.5895 32.6303 22.0746 32.3922 21.6132C32.0831 21.0103 31.6261 20.5017 31.0703 20.1283C30.6346 19.8344 30.1411 19.6262 29.611 19.5232C29.2741 19.4567 28.9222 19.4353 28.5638 19.461C28.1153 19.4932 27.6883 19.6005 27.2978 19.7657C27.4008 19.7421 27.5059 19.7228 27.6132 19.7078C28.5359 19.5812 29.4244 19.8086 30.1432 20.2828C30.6883 20.6433 31.1368 21.1454 31.4286 21.7463C31.4716 21.8385 31.5123 21.9329 31.551 22.0274C31.6604 22.2999 31.7505 22.5788 31.817 22.862C32.0853 23.995 31.6969 25.6387 31.4437 26.3275C31.1604 27.1021 31.0123 27.4862 30.8449 27.9411L30.8471 27.9432Z" fill="#DDB691"/>
<path d="M35.8105 33.4622C35.7376 33.4601 35.6646 33.4558 35.5917 33.4558C35.5187 33.4558 35.4457 33.458 35.3728 33.4622C33.2011 33.5717 31.4565 35.3055 31.3299 37.4748C31.3256 37.5585 31.3213 37.6443 31.3213 37.7302C31.3213 38.8803 31.7762 39.9253 32.5166 40.6935C32.2354 40.1806 32.0552 39.6056 32.0015 38.9854C31.7998 36.6659 33.4565 34.6102 35.7376 34.2948C35.8105 34.2841 35.8856 34.2755 35.9608 34.2691C36.8728 34.1897 37.7526 34.3313 38.5509 34.6489C40.3942 35.3827 41.789 37.0585 42.0809 39.1335C41.6646 36.0028 39.0337 33.5717 35.8148 33.4644L35.8105 33.4622Z" fill="#DDB691"/>
<path d="M29.4571 37.9983C29.44 37.9146 29.4228 37.8288 29.4013 37.7451C29.382 37.6636 29.3584 37.5842 29.3348 37.5026C29.0494 36.522 28.5194 35.6744 27.8284 35.0071C26.4722 33.7003 24.4979 33.0952 22.5323 33.5759C19.8563 34.2303 18.0924 36.6808 18.2061 39.3308C18.1675 37.0306 19.719 34.9256 22.0473 34.3569C24.6868 33.7111 27.3499 35.2732 28.0902 37.8631C28.1181 37.9897 28.1503 38.1142 28.1825 38.2386C28.4314 39.1892 28.8005 40.0797 29.2683 40.8994C30.2511 42.6138 31.6717 44.0107 33.3498 44.9699C33.9764 44.8261 34.5902 44.6416 35.1846 44.4227C32.4528 43.3262 30.2747 41.0045 29.455 37.9983H29.4571Z" fill="#DDB691"/>
<path d="M21.6943 34.447C19.2909 34.7689 17.7308 36.9576 18.2093 39.3351C20.6128 39.0132 22.1728 36.8245 21.6943 34.447Z" fill="#7F9391"/>
<path d="M34.7651 27.426C35.4647 29.7477 37.8746 30.9407 40.1449 30.0888C39.4454 27.7671 37.0355 26.5741 34.7651 27.426Z" fill="#7F9391"/>
<path d="M38.5749 17.8669C37.4054 19.3196 37.6973 21.3688 39.223 22.4396C40.3925 20.9869 40.1007 18.9377 38.5749 17.8669Z" fill="#7F9391"/>
<path d="M33.9849 35.6359C34.3325 37.2409 35.8926 38.1764 37.472 37.7258C37.1243 36.1208 35.5643 35.1852 33.9849 35.6359Z" fill="#7F9391"/>
<path d="M33.5567 33.3916C35.0932 32.8144 35.7906 31.1342 35.1146 29.6365C33.5782 30.2137 32.8807 31.8938 33.5567 33.3916Z" fill="#7F9391"/>
<path d="M41.3003 34.9792C41.8861 36.5135 43.5728 37.2001 45.0642 36.5135C44.4784 34.9793 42.7917 34.2926 41.3003 34.9792Z" fill="#7F9391"/>
<path d="M35.2269 27.763C37.2505 26.4262 37.7012 23.7762 36.2334 21.845C34.2098 23.1818 33.7591 25.8318 35.2269 27.763Z" fill="#7F9391"/>
<path d="M37.8463 26.7205C40.269 26.5961 42.0029 24.5447 41.7218 22.135C39.2991 22.2595 37.5652 24.3108 37.8463 26.7205Z" fill="#7F9391"/>
<path d="M32.3591 15.354C30.2368 17.2251 30.1424 20.3601 32.1488 22.3556C34.2712 20.4845 34.3656 17.3496 32.3591 15.354Z" fill="#7F9391"/>
<path d="M37.3579 33.698C37.0596 36.5883 39.1712 39.0216 42.0746 39.1311C42.3729 36.2407 40.2613 33.8074 37.3579 33.698Z" fill="#7F9391"/>
<path d="M40.2554 28.409C41.2918 30.0784 43.427 30.5033 45.0236 29.3617C43.9871 27.6923 41.8519 27.2675 40.2554 28.409Z" fill="#7F9391"/>
<path d="M37.3579 33.6981C39.5446 34.8546 42.139 33.9641 43.1519 31.7046C40.9652 30.5481 38.3708 31.4407 37.3579 33.6981Z" fill="#7F9391"/>
<path d="M27.2998 19.7679C28.0122 22.0853 30.4285 23.2655 32.6946 22.4007C31.9822 20.0833 29.5659 18.9031 27.2998 19.7679Z" fill="#7F9391"/>
<path d="M20.4007 26.1944C18.1175 25.3768 15.7269 26.6042 15.0596 28.9367C17.3428 29.7542 19.7334 28.5268 20.4007 26.1944Z" fill="#7F9391"/>
<path d="M23.4303 28.2885C21.7565 27.6512 19.9733 28.5224 19.4475 30.2348C21.1213 30.872 22.9046 30.0009 23.4303 28.2885Z" fill="#7F9391"/>
<path d="M26.2892 30.7649C24.9587 30.1834 23.4823 30.8186 22.9888 32.1854C24.3192 32.7669 25.7956 32.1318 26.2892 30.7649Z" fill="#7F9391"/>
<path d="M20.382 24.6988C20.3519 23.0423 18.9893 21.8106 17.3369 21.948C17.367 23.6045 18.7296 24.8361 20.382 24.6988Z" fill="#7F9391"/>
<path d="M19.0722 34.7778C17.8576 34.2092 16.4756 34.7628 15.9885 36.0116C17.2031 36.5802 18.5851 36.0266 19.0722 34.7778Z" fill="#7F9391"/>
<path d="M26.1943 27.5142C26.6921 26.2697 26.0634 24.9221 24.7865 24.5059C24.2887 25.7504 24.9174 27.0979 26.1943 27.5142Z" fill="#7F9391"/>
<path d="M26.3921 35.3226C24.6196 34.8505 22.8943 35.9255 22.5381 37.7237C24.3106 38.1958 26.0359 37.1207 26.3921 35.3226Z" fill="#7F9391"/>
<path d="M17.4822 31.9045C19.6517 30.8187 22.1731 31.75 23.113 33.9859C20.9435 35.0716 18.4221 34.1404 17.4822 31.9045Z" fill="#7F9391"/>
<path d="M22.2316 21.2527C24.1758 22.347 24.4848 24.525 22.9248 26.1193C20.9806 25.0249 20.6715 22.847 22.2316 21.2527Z" fill="#7F9391"/>
<path d="M30.9956 23.6689C30.8454 25.3125 29.4012 26.4347 27.7725 26.1772C27.9227 24.5336 29.3669 23.4114 30.9956 23.6689Z" fill="#7F9391"/>
<path d="M25.8172 21.27C27.433 21.6069 28.3837 23.1669 27.9438 24.7569C26.3279 24.42 25.3772 22.86 25.8172 21.27Z" fill="#7F9391"/>
<path d="M27.2063 15.4143C26.9295 17.2597 28.2106 18.8819 30.0711 19.0364C30.3479 17.191 29.0668 15.5688 27.2063 15.4143Z" fill="#7F9391"/>
<path d="M19.635 19.2442C20.5792 18.5683 21.841 18.8193 22.4547 19.8064C21.5105 20.4823 20.2487 20.2313 19.635 19.2442Z" fill="#7F9391"/>
<path d="M34.6753 15.916C34.2311 17.727 35.3598 19.4608 37.1967 19.7848C37.6409 17.9738 36.5122 16.24 34.6753 15.916Z" fill="#7F9391"/>
<path d="M25.8404 15.7339C23.7138 16.9012 23.0486 19.504 24.3511 21.5511C26.4777 20.3838 27.143 17.7809 25.8404 15.7339Z" fill="#7F9391"/>
<defs>
<linearGradient id="paint0_linear_359_237" x1="74.25" y1="30.75" x2="314.25" y2="30.75" gradientUnits="userSpaceOnUse">
<stop stop-color="#F3DEBB"/>
<stop offset="0.15" stop-color="#F3DEBB"/>
<stop offset="0.35" stop-color="#E5C5A1"/>
<stop offset="0.61" stop-color="#D5A983"/>
<stop offset="0.72" stop-color="#A57B5D"/>
<stop offset="0.84" stop-color="#D5A983"/>
<stop offset="1" stop-color="#F3DEBB"/>
</linearGradient>
<linearGradient id="paint1_linear_359_237" x1="15.0032" y1="10.3694" x2="45.003" y2="10.3694" gradientUnits="userSpaceOnUse">
<stop stop-color="#F3DEBB"/>
<stop offset="0.15" stop-color="#F3DEBB"/>
<stop offset="0.35" stop-color="#E5C5A1"/>
<stop offset="0.61" stop-color="#D5A983"/>
<stop offset="0.72" stop-color="#A57B5D"/>
<stop offset="0.84" stop-color="#D5A983"/>
<stop offset="1" stop-color="#F3DEBB"/>
</linearGradient>
<linearGradient id="paint2_linear_359_237" x1="15.9312" y1="39.7728" x2="16.1372" y2="39.7728" gradientUnits="userSpaceOnUse">
<stop stop-color="#F3DEBB"/>
<stop offset="0.15" stop-color="#F3DEBB"/>
<stop offset="0.35" stop-color="#E5C5A1"/>
<stop offset="0.61" stop-color="#D5A983"/>
<stop offset="0.72" stop-color="#A57B5D"/>
<stop offset="0.84" stop-color="#D5A983"/>
<stop offset="1" stop-color="#F3DEBB"/>
</linearGradient>
<linearGradient id="paint3_linear_359_237" x1="15.0032" y1="50.1423" x2="44.9987" y2="50.1423" gradientUnits="userSpaceOnUse">
<stop stop-color="#F3DEBB"/>
<stop offset="0.15" stop-color="#F3DEBB"/>
<stop offset="0.35" stop-color="#E5C5A1"/>
<stop offset="0.61" stop-color="#D5A983"/>
<stop offset="0.72" stop-color="#A57B5D"/>
<stop offset="0.84" stop-color="#D5A983"/>
<stop offset="1" stop-color="#F3DEBB"/>
</linearGradient>
<linearGradient id="paint4_linear_359_237" x1="0" y1="30.2435" x2="20.2402" y2="30.2435" gradientUnits="userSpaceOnUse">
<stop stop-color="#F3DEBB"/>
<stop offset="0.15" stop-color="#F3DEBB"/>
<stop offset="0.35" stop-color="#E5C5A1"/>
<stop offset="0.61" stop-color="#D5A983"/>
<stop offset="0.72" stop-color="#A57B5D"/>
<stop offset="0.84" stop-color="#D5A983"/>
<stop offset="1" stop-color="#F3DEBB"/>
</linearGradient>
<linearGradient id="paint5_linear_359_237" x1="39.7852" y1="30.2501" x2="59.9996" y2="30.2501" gradientUnits="userSpaceOnUse">
<stop stop-color="#F3DEBB"/>
<stop offset="0.15" stop-color="#F3DEBB"/>
<stop offset="0.35" stop-color="#E5C5A1"/>
<stop offset="0.61" stop-color="#D5A983"/>
<stop offset="0.72" stop-color="#A57B5D"/>
<stop offset="0.84" stop-color="#D5A983"/>
<stop offset="1" stop-color="#F3DEBB"/>
</linearGradient>
<linearGradient id="paint6_linear_359_237" x1="4.39209" y1="18.9645" x2="33.0336" y2="18.9645" gradientUnits="userSpaceOnUse">
<stop stop-color="#F3DEBB"/>
<stop offset="0.15" stop-color="#F3DEBB"/>
<stop offset="0.35" stop-color="#E5C5A1"/>
<stop offset="0.61" stop-color="#D5A983"/>
<stop offset="0.72" stop-color="#A57B5D"/>
<stop offset="0.84" stop-color="#D5A983"/>
<stop offset="1" stop-color="#F3DEBB"/>
</linearGradient>
<linearGradient id="paint7_linear_359_237" x1="26.9758" y1="41.5366" x2="55.6087" y2="41.5366" gradientUnits="userSpaceOnUse">
<stop stop-color="#F3DEBB"/>
<stop offset="0.15" stop-color="#F3DEBB"/>
<stop offset="0.35" stop-color="#E5C5A1"/>
<stop offset="0.61" stop-color="#D5A983"/>
<stop offset="0.72" stop-color="#A57B5D"/>
<stop offset="0.84" stop-color="#D5A983"/>
<stop offset="1" stop-color="#F3DEBB"/>
</linearGradient>
<linearGradient id="paint8_linear_359_237" x1="4.39209" y1="41.5344" x2="33.0379" y2="41.5344" gradientUnits="userSpaceOnUse">
<stop stop-color="#F3DEBB"/>
<stop offset="0.15" stop-color="#F3DEBB"/>
<stop offset="0.35" stop-color="#E5C5A1"/>
<stop offset="0.61" stop-color="#D5A983"/>
<stop offset="0.72" stop-color="#A57B5D"/>
<stop offset="0.84" stop-color="#D5A983"/>
<stop offset="1" stop-color="#F3DEBB"/>
</linearGradient>
<linearGradient id="paint9_linear_359_237" x1="26.9714" y1="18.9556" x2="55.6022" y2="18.9556" gradientUnits="userSpaceOnUse">
<stop stop-color="#F3DEBB"/>
<stop offset="0.15" stop-color="#F3DEBB"/>
<stop offset="0.35" stop-color="#E5C5A1"/>
<stop offset="0.61" stop-color="#D5A983"/>
<stop offset="0.72" stop-color="#A57B5D"/>
<stop offset="0.84" stop-color="#D5A983"/>
<stop offset="1" stop-color="#F3DEBB"/>
</linearGradient>
</defs>
</svg>
